<svg xmlns="http://www.w3.org/2000/svg" style="cursor: move;" width="1444" height="868"><g transform="translate(-6.714902865787849,-89.51865493211466) scale(1.1991399137911105)"><path class="link" style="stroke-width: 0.5px; stroke-opacity: 1; stroke: rgb(80, 80, 80); fill: none;" marker-end="" d="M562,404, 742,344"></path><path class="link" style="stroke-width: 0.5px; stroke-opacity: 1; stroke: rgb(80, 80, 80); fill: none;" marker-end="" d="M562,404, 742,384"></path><path class="link" style="stroke-width: 0.5px; stroke-opacity: 1; stroke: rgb(80, 80, 80); fill: none;" marker-end="" d="M562,404, 742,424"></path><path class="link" style="stroke-width: 0.5px; stroke-opacity: 1; stroke: rgb(80, 80, 80); fill: none;" marker-end="" d="M562,404, 742,464"></path><path class="link" style="stroke-width: 0.5px; stroke-opacity: 1; stroke: rgb(80, 80, 80); fill: none;" marker-end="" d="M562,404, 742,504"></path><path class="link" style="stroke-width: 0.5px; stroke-opacity: 1; stroke: rgb(80, 80, 80); fill: none;" marker-end="" d="M562,444, 742,344"></path><path class="link" style="stroke-width: 0.5px; stroke-opacity: 1; stroke: rgb(80, 80, 80); fill: none;" marker-end="" d="M562,444, 742,384"></path><path class="link" style="stroke-width: 0.5px; stroke-opacity: 1; stroke: rgb(80, 80, 80); fill: none;" marker-end="" d="M562,444, 742,424"></path><path class="link" style="stroke-width: 0.5px; stroke-opacity: 1; stroke: rgb(80, 80, 80); fill: none;" marker-end="" d="M562,444, 742,464"></path><path class="link" style="stroke-width: 0.5px; stroke-opacity: 1; stroke: rgb(80, 80, 80); fill: none;" marker-end="" d="M562,444, 742,504"></path><path class="link" style="stroke-width: 0.5px; stroke-opacity: 1; stroke: rgb(80, 80, 80); fill: none;" marker-end="" d="M742,344, 922,424"></path><path class="link" style="stroke-width: 0.5px; stroke-opacity: 1; stroke: rgb(80, 80, 80); fill: none;" marker-end="" d="M742,384, 922,424"></path><path class="link" style="stroke-width: 0.5px; stroke-opacity: 1; stroke: rgb(80, 80, 80); fill: none;" marker-end="" d="M742,424, 922,424"></path><path class="link" style="stroke-width: 0.5px; stroke-opacity: 1; stroke: rgb(80, 80, 80); fill: none;" marker-end="" d="M742,464, 922,424"></path><path class="link" style="stroke-width: 0.5px; stroke-opacity: 1; stroke: rgb(80, 80, 80); fill: none;" marker-end="" d="M742,504, 922,424"></path><circle r="10" class="node" id="0_0" style="fill: rgb(255, 255, 255); stroke: rgb(51, 51, 51);" cx="562" cy="404"></circle><circle r="10" class="node" id="0_1" style="fill: rgb(255, 255, 255); stroke: rgb(51, 51, 51);" cx="562" cy="444"></circle><circle r="10" class="node" id="1_0" style="fill: rgb(255, 255, 255); stroke: rgb(51, 51, 51);" cx="742" cy="344"></circle><circle r="10" class="node" id="1_1" style="fill: rgb(255, 255, 255); stroke: rgb(51, 51, 51);" cx="742" cy="384"></circle><circle r="10" class="node" id="1_2" style="fill: rgb(255, 255, 255); stroke: rgb(51, 51, 51);" cx="742" cy="424"></circle><circle r="10" class="node" id="1_3" style="fill: rgb(255, 255, 255); stroke: rgb(51, 51, 51);" cx="742" cy="464"></circle><circle r="10" class="node" id="1_4" style="fill: rgb(255, 255, 255); stroke: rgb(51, 51, 51);" cx="742" cy="504"></circle><text class="text" dy=".35em" style="font-size: 12px;" x="527" y="544">Input Layer ∈ ℝ²</text><text class="text" dy=".35em" style="font-size: 12px;" x="707" y="544">Hidden Layer ∈ ℝ⁵</text><circle r="10" class="node" id="2_0" style="fill: rgb(255, 255, 255); stroke: rgb(51, 51, 51);" cx="922" cy="424"></circle><text class="text" dy=".35em" style="font-size: 12px;" x="887" y="544">Output Layer ∈ ℝ¹</text></g><defs><marker id="arrow" viewBox="0 -5 10 10" markerWidth="7" markerHeight="7" orient="auto" refX="40"><path d="M0,-5L10,0L0,5" style="stroke: rgb(80, 80, 80); fill: none;"></path></marker></defs></svg>